<?xml version="1.0" encoding="utf-8"?>
<svg id="master-artboard" viewBox="0 0 1400 1000" version="1.1" xmlns="http://www.w3.org/2000/svg" x="0px" y="0px" style="enable-background:new 0 0 1400 1000;" width="1400px" height="1000px">

<path d="M 155.600006 413.200012 H 389.900009 V 571.500015 H 155.600006 V 413.200012 Z" class="st1" style="fill: rgb(255, 255, 255);" transform="matrix(5.786544450140686, 0, 0, 5.786544450140686, -894.035479623961, -2386.902833238719)"/><path d="M 155.600006 413.200012 H 389.900009 V 446.800011 H 155.600006 V 413.200012 Z" class="st2" style="fill: rgb(12, 47, 62);" transform="matrix(5.786544450140686, 0, 0, 5.786544450140686, -894.035479623961, -2386.902833238719)"/><path class="st8" d="M246.6,534.4l-35.4-21.9v-7.8l35.4-21.8v11.3l-24.5,14.4l24.5,14.5V534.4z" style="fill: rgb(167, 187, 57);" transform="matrix(5.786544450140686, 0, 0, 5.786544450140686, -894.035479623961, -2386.902833238719)"/><path class="st8" d="M293,471.4l-27.4,73.5h-12.9l27.4-73.5H293z" style="fill: rgb(167, 187, 57);" transform="matrix(5.786544450140686, 0, 0, 5.786544450140686, -894.035479623961, -2386.902833238719)"/><path class="st8" d="M299,523.1l24.6-14.5L299,494.1v-11.3l35.4,21.8v7.8L299,534.4V523.1z" style="fill: rgb(167, 187, 57);" transform="matrix(5.786544450140686, 0, 0, 5.786544450140686, -894.035479623961, -2386.902833238719)"/>
</svg>