<?xml version="1.0" encoding="utf-8"?>
<svg id="master-artboard" viewBox="0 0 1400 980" version="1.1" xmlns="http://www.w3.org/2000/svg" x="0px" y="0px" style="enable-background:new 0 0 1400 980;" width="1400px" height="980px">



<path class="st2" d="M644.7,489.7c0,162.1-131.4,293.5-293.5,293.5c-162.1,0-293.5-131.4-293.5-293.5&#10;&#9;&#9;c0-162.1,131.4-293.5,293.5-293.5C513.3,196.1,644.7,327.6,644.7,489.7z" style="fill: rgb(207, 222, 83);" transform="matrix(1.6240041255950928, 0, 0, 1.6240041255950928, 126.50094118548327, -306.95178659325575)"/>

<g transform="matrix(1.1782629489898682, 0, 0, 1.1782629489898682, -397.6850176768215, -28.782789782342633)">
		<path class="st4" d="M1226.2,321.9c0-13.4-10.9-24.2-24.3-24.2H940c-13.4,0-24.2,10.9-24.2,24.2v378.3c0,13.4,10.9,24.2,24.2,24.2&#10;&#9;&#9;&#9;h261.9c13.4,0,24.3-10.9,24.3-24.2V321.9z" style="fill: rgb(167, 187, 57);"/>
	</g>


<g transform="matrix(1.6240038871765137, 0, 0, 1.6240038871765137, 32.576350121030146, -474.6745954311464)">
		<path class="st6" d="M178.5,376.3v239.1h-48.8c0,10.8,8.6,19.5,19.1,19.5h430.1c10.6,0,19.1-8.7,19.1-19.5h-48.8V376.3&#10;&#9;&#9;&#9;c0-7.2-5.8-13-13-13H368.8H191.5C184.3,363.3,178.5,369.1,178.5,376.3z" style="fill: rgb(167, 187, 57);"/>
	</g>





<path class="st10" d="M357.8,599.8H167.5V360.7c0-7.2,5.8-13,13-13h177.3h167.5c7.2,0,13,5.8,13,13v239.1H357.8z" style="fill-rule: evenodd; clip-rule: evenodd; fill: rgb(13, 48, 63);" transform="matrix(1.6240038871765137, 0, 0, 1.6240038871765137, 32.576350121030146, -474.6745954311464)"/>
<path class="st11" d="M587.1,599.8c0,10.8-8.6,19.5-19.1,19.5H137.9c-10.6,0-19.1-8.7-19.1-19.5H587.1z" style="fill-rule: evenodd; clip-rule: evenodd; fill: rgb(255, 255, 255);" transform="matrix(1.6240038871765137, 0, 0, 1.6240038871765137, 32.576350121030146, -474.6745954311464)"/>
<path class="st11" d="M181.3,584.2V363.3h343.3v220.9H181.3z" style="fill-rule: evenodd; clip-rule: evenodd; fill: rgb(255, 255, 255);" transform="matrix(1.6240038871765137, 0, 0, 1.6240038871765137, 32.576350121030146, -474.6745954311464)"/>
<path class="st10" d="M386.2,599.8c0,3.6-3,6.5-6.8,6.5h-52.9c-3.8,0-6.8-2.9-6.8-6.5H386.2z" style="fill-rule: evenodd; clip-rule: evenodd; fill: rgb(13, 48, 63);" transform="matrix(1.6240038871765137, 0, 0, 1.6240038871765137, 32.576350121030146, -474.6745954311464)"/>





<g transform="matrix(1.6240038871765137, 0, 0, 1.6240038871765137, 32.576350121030146, -474.6745954311464)" style="opacity: 0.2;">
		<g>
			<g>
				<path d="M 201 381.299988 H 391.300003 V 406.099987 H 201 V 381.299988 Z" class="st15" style="fill: rgb(63, 64, 64);"/>
			</g>
		</g>
	</g><g transform="matrix(1.6240038871765137, 0, 0, 1.6240038871765137, 32.576350121030146, -474.6745954311464)" style="opacity: 0.2;">
			<g>
				<path d="M 201 509.5 H 418.399994 V 527 H 201 V 509.5 Z" class="st15" style="fill: rgb(63, 64, 64);"/>
			</g>
		</g><g transform="matrix(1.6240038871765137, 0, 0, 1.6240038871765137, 32.576350121030146, -474.6745954311464)" style="opacity: 0.2;">
			<g>
				<path d="M 201 535.099976 H 482.399994 V 545.299975 H 201 V 535.099976 Z" class="st15" style="fill: rgb(63, 64, 64);"/>
			</g>
		</g><g transform="matrix(1.6240038871765137, 0, 0, 1.6240038871765137, 32.576350121030146, -474.6745954311464)" style="opacity: 0.2;">
			<g>
				<path d="M 201 553.099976 H 460 V 563.299975 H 201 V 553.099976 Z" class="st15" style="fill: rgb(63, 64, 64);"/>
			</g>
		</g><g transform="matrix(1.6240038871765137, 0, 0, 1.6240038871765137, 32.576350121030146, -474.6745954311464)" style="opacity: 0.2;">
			<g>
				<path d="M 201 464.399994 H 404.199997 V 474.599994 H 201 V 464.399994 Z" class="st15" style="fill: rgb(63, 64, 64);"/>
			</g>
		</g><g transform="matrix(1.6240038871765137, 0, 0, 1.6240038871765137, 32.576350121030146, -474.6745954311464)" style="opacity: 0.2;">
			<g>
				<path d="M 201 482.399994 H 435.800003 V 492.599994 H 201 V 482.399994 Z" class="st15" style="fill: rgb(63, 64, 64);"/>
			</g>
		</g><g transform="matrix(1.6240038871765137, 0, 0, 1.6240038871765137, 32.576350121030146, -474.6745954311464)" style="opacity: 0.2;">
			<g>
				<path d="M 201 418.5 H 466.299988 V 428.7 H 201 V 418.5 Z" class="st15" style="fill: rgb(63, 64, 64);"/>
			</g>
		</g><g transform="matrix(1.6240038871765137, 0, 0, 1.6240038871765137, 32.576350121030146, -474.6745954311464)" style="opacity: 0.2;">
			<g>
				<path d="M 201 436.5 H 477.399994 V 446.7 H 201 V 436.5 Z" class="st15" style="fill: rgb(63, 64, 64);"/>
			</g>
		</g>



<path class="st10" d="M929,282.9h261.9c13.4,0,24.3,10.9,24.3,24.2v378.3c0,13.4-10.9,24.2-24.3,24.2H929&#10;&#9;&#9;c-13.4,0-24.2-10.9-24.2-24.2V307.1C904.7,293.7,915.6,282.9,929,282.9z" style="fill-rule: evenodd; clip-rule: evenodd; fill: rgb(13, 48, 63);" transform="matrix(1.1782629489898682, 0, 0, 1.1782629489898682, -397.6850176768215, -28.782789782342633)"/>
<path class="st17" d="M1059.9,676.7c6.1,0,11.1,4.9,11.1,11.1c0,6.1-5,11.1-11.1,11.1c-6.1,0-11.1-5-11.1-11.1&#10;&#9;&#9;C1048.9,681.6,1053.8,676.7,1059.9,676.7z" style="fill-rule: evenodd; clip-rule: evenodd; fill: rgb(233, 233, 233);" transform="matrix(1.1782629489898682, 0, 0, 1.1782629489898682, -397.6850176768215, -28.782789782342633)"/>
<path class="st11" d="M919.8,326.5H1200V666H919.8V326.5z" style="fill-rule: evenodd; clip-rule: evenodd; fill: rgb(255, 255, 255);" transform="matrix(1.1782629489898682, 0, 0, 1.1782629489898682, -397.6850176768215, -28.782789782342633)"/>
<g transform="matrix(1.1782629489898682, 0, 0, 1.1782629489898682, -397.6850176768215, -28.782789782342633)" style="opacity: 0.2;">
		<g>
			<g>
				<path d="M 947.299988 572.599976 H 1126.499985 V 593.599976 H 947.299988 V 572.599976 Z" class="st15" style="fill: rgb(63, 64, 64);"/>
			</g>
		</g>
	</g><g transform="matrix(1.1782629489898682, 0, 0, 1.1782629489898682, -397.6850176768215, -28.782789782342633)" style="opacity: 0.2;">
			<g>
				<path d="M 947.299988 603.299988 H 1168.099991 V 615.499988 H 947.299988 V 603.299988 Z" class="st15" style="fill: rgb(63, 64, 64);"/>
			</g>
		</g><g transform="matrix(1.1782629489898682, 0, 0, 1.1782629489898682, -397.6850176768215, -28.782789782342633)" style="opacity: 0.2;">
			<g>
				<path d="M 947.299988 625.099976 H 1150.499985 V 637.299975 H 947.299988 V 625.099976 Z" class="st15" style="fill: rgb(63, 64, 64);"/>
			</g>
		</g><g transform="matrix(1.1782629489898682, 0, 0, 1.1782629489898682, -397.6850176768215, -28.782789782342633)" style="opacity: 0.2;">
			<g>
				<path d="M 947.299988 381.299988 H 1150.499985 V 402.299988 H 947.299988 V 381.299988 Z" class="st15" style="fill: rgb(63, 64, 64);"/>
			</g>
		</g><g transform="matrix(1.1782629489898682, 0, 0, 1.1782629489898682, -397.6850176768215, -28.782789782342633)" style="opacity: 0.2;">
			<g>
				<path d="M 947.299988 412.100006 H 1168.099991 V 424.300006 H 947.299988 V 412.100006 Z" class="st15" style="fill: rgb(63, 64, 64);"/>
			</g>
		</g><g transform="matrix(1.1782629489898682, 0, 0, 1.1782629489898682, -397.6850176768215, -28.782789782342633)" style="opacity: 0.2;">
			<g>
				<path d="M 947.299988 433.799988 H 1126.499985 V 445.999988 H 947.299988 V 433.799988 Z" class="st15" style="fill: rgb(63, 64, 64);"/>
			</g>
		</g><g transform="matrix(1.1782629489898682, 0, 0, 1.1782629489898682, -397.6850176768215, -28.782789782342633)" style="opacity: 0.2;">
			<g>
				<path d="M 947.299988 348.799988 H 1167.999985 V 360.999988 H 947.299988 V 348.799988 Z" class="st15" style="fill: rgb(63, 64, 64);"/>
			</g>
		</g>
<path d="M 945.400024 468.399994 H 1042.700027 V 556.699997 H 945.400024 V 468.399994 Z" class="st15" style="fill: rgb(63, 64, 64); opacity: 0.2;" transform="matrix(1.1782629489898682, 0, 0, 1.1782629489898682, -397.6850176768215, -28.782789782342633)"/>
<path d="M 1064.5 468.399994 H 1161.800003 V 556.699997 H 1064.5 V 468.399994 Z" class="st15" style="fill: rgb(63, 64, 64); opacity: 0.2;" transform="matrix(1.1782629489898682, 0, 0, 1.1782629489898682, -397.6850176768215, -28.782789782342633)"/>





<path d="M 865.2885131835938 243.07693481445312" style="fill: rgb(255, 255, 255); fill-opacity: 1; stroke: rgb(0, 0, 0); stroke-opacity: 1; stroke-width: 0; paint-order: fill;"/><path d="M 879.1346435546875 226.63462829589844" style="fill: rgb(255, 255, 255); fill-opacity: 1; stroke: rgb(0, 0, 0); stroke-opacity: 1; stroke-width: 0; paint-order: fill;"/></svg>